HIERARCHY
ROOT Hips
{
 OFFSET 0.000000 0.000000 0.000000
 CHANNELS 6 Xposition Yposition Zposition Yrotation Xrotation Zrotation
 JOINT Chest
 {
  OFFSET 0.000000 9.857222 0.000240
  CHANNELS 3 Yrotation Xrotation Zrotation
  JOINT Chest2
  {
   OFFSET 0.000000 10.876940 -0.000436
   CHANNELS 3 Yrotation Xrotation Zrotation
   JOINT Chest3
   {
    OFFSET 0.000000 9.827798 0.000000
    CHANNELS 3 Yrotation Xrotation Zrotation
    JOINT Chest4
    {
     OFFSET 0.000000 9.827798 0.000000
     CHANNELS 3 Yrotation Xrotation Zrotation
     JOINT Neck
     {
      OFFSET 0.000000 13.831992 0.000000
      CHANNELS 3 Yrotation Xrotation Zrotation
      JOINT Head
      {
       OFFSET 0.000000 9.147643 -0.001036
       CHANNELS 3 Yrotation Xrotation Zrotation
       End Site
       {
        OFFSET 0.000000 17.515799 -0.000541
       }
      }
     }
     JOINT RightCollar
     {
      OFFSET -3.001579 7.717577 0.000000
      CHANNELS 3 Yrotation Xrotation Zrotation
      JOINT RightShoulder
      {
       OFFSET -14.002642 0.000000 0.000000
       CHANNELS 3 Yrotation Xrotation Zrotation
       JOINT RightElbow
       {
        OFFSET -30.053852 0.000000 0.000000
        CHANNELS 3 Yrotation Xrotation Zrotation
        JOINT RightWrist
        {
         OFFSET -24.564923 0.000000 -0.000000
         CHANNELS 3 Yrotation Xrotation Zrotation
         End Site
         {
          OFFSET -18.334355 0.000000 0.000000
         }
        }
       }
      }
     }
     JOINT LeftCollar
     {
      OFFSET 3.001579 7.717577 0.000000
      CHANNELS 3 Yrotation Xrotation Zrotation
      JOINT LeftShoulder
      {
       OFFSET 14.002642 0.000000 0.000000
       CHANNELS 3 Yrotation Xrotation Zrotation
       JOINT LeftElbow
       {
        OFFSET 30.053852 0.000000 0.000000
        CHANNELS 3 Yrotation Xrotation Zrotation
        JOINT LeftWrist
        {
         OFFSET 24.564923 0.000000 -0.000000
         CHANNELS 3 Yrotation Xrotation Zrotation
         End Site
         {
          OFFSET 18.334355 0.000000 0.000000
         }
        }
       }
      }
     }
    }
   }
  }
 }
 JOINT RightHip
 {
  OFFSET -8.003235 -0.001175 -0.000120
  CHANNELS 3 Yrotation Xrotation Zrotation
  JOINT RightKnee
  {
   OFFSET 0.000000 -41.759727 0.000113
   CHANNELS 3 Yrotation Xrotation Zrotation
   JOINT RightAnkle
   {
    OFFSET 0.000000 -40.728748 0.000159
    CHANNELS 3 Yrotation Xrotation Zrotation
    JOINT RightToe
    {
     OFFSET 0.000000 -6.515296 14.732841
     CHANNELS 3 Yrotation Xrotation Zrotation
     End Site
     {
      OFFSET 0.000000 -1.502839 6.412115
     }
    }
   }
  }
 }
 JOINT LeftHip
 {
  OFFSET 8.003235 -0.001175 -0.000120
  CHANNELS 3 Yrotation Xrotation Zrotation
  JOINT LeftKnee
  {
   OFFSET 0.000000 -41.759727 0.000113
   CHANNELS 3 Yrotation Xrotation Zrotation
   JOINT LeftAnkle
   {
    OFFSET 0.000000 -40.728748 0.000159
    CHANNELS 3 Yrotation Xrotation Zrotation
    JOINT LeftToe
    {
     OFFSET 0.000000 -6.515296 14.732841
     CHANNELS 3 Yrotation Xrotation Zrotation
     End Site
     {
      OFFSET 0.000000 -1.502839 6.412115
     }
    }
   }
  }
 }
}
MOTION
Frames: 15
Frame Time: 0.016667
0.000000 88.822259 0.000000 0.000000 -5.826342 0.000000 0.000000 11.116423 0.000000 0.000000 -5.290081 0.000000 0.000000 0.000000 0.000000 0.000000 0.000000 0.000000 0.000000 12.665069 0.000000 0.000000 0.575450 0.000000 0.000000 0.000000 0.000000 0.000000 0.000000 0.000000 2.337306 0.000000 0.000000 -2.337306 0.000000 0.000000 0.000000 0.000000 0.000000 0.000000 0.000000 0.000000 -2.337306 0.000000 0.000000 2.337306 0.000000 0.000000 0.000000 8.578828 0.000000 0.000000 1.905768 0.000000 0.000000 -4.658254 0.000000 0.000000 0.000000 0.000000 0.000000 8.578828 0.000000 0.000000 1.905768 0.000000 0.000000 -4.658254 0.000000 0.000000 0.000000 0.000000
2.221618 90.171838 25.593114 -39.017950 -6.149915 -0.503326 2.182924 -4.166477 0.548421 1.458318 -1.356736 0.137438 1.458318 -1.356736 0.137438 1.093993 -1.017231 0.106313 0.326264 27.228337 0.832853 0.403425 14.381016 1.413294 2.060326 20.052959 14.040724 29.326295 2.591914 83.142426 33.416445 -9.327066 -3.539158 0.691954 1.955008 -7.059174 -20.324881 27.342055 -21.440039 -37.439037 21.059809 -77.544101 -39.692635 -21.469774 3.229997 2.535797 7.239305 11.485249 -4.446716 9.281221 -5.334210 4.384398 1.421595 1.945658 0.680901 -4.316795 2.270120 -0.220890 0.251414 -0.039944 -12.058046 15.802288 2.155353 21.295398 4.573649 -6.728417 1.513324 -10.807855 0.165967 1.349873 0.163889 0.605228
2.202334 90.169434 25.737774 -38.814683 -6.401752 -0.347272 2.269040 -3.840876 0.388781 1.443428 -1.425800 0.130808 1.443428 -1.425800 0.130808 1.082820 -1.069048 0.101470 0.272216 27.257568 0.823038 0.309565 14.435743 1.407348 2.077253 20.179450 14.048823 29.785343 2.546088 82.855541 33.150523 -9.719374 -3.424193 0.531694 2.019114 -6.895061 -20.402045 27.432473 -21.455988 -37.600318 20.946146 -77.305482 -39.927004 -21.470697 3.369161 2.583956 7.250453 11.461952 -4.783034 9.648754 -5.721538 4.660438 1.332929 2.017640 0.883470 -4.435101 2.450089 -0.542764 0.275353 -0.176478 -11.624056 16.100426 1.950290 20.787799 4.405023 -6.590680 1.411571 -10.687386 0.152404 1.348327 0.070698 0.594756
2.147934 90.157633 25.867304 -38.854978 -6.459408 -0.387229 2.573874 -3.714737 0.450695 1.421205 -1.494599 0.120883 1.421205 -1.494599 0.120883 1.066139 -1.120675 0.094134 0.248482 27.278452 0.807447 0.270821 14.474677 1.384645 2.082981 20.241197 14.033857 30.267056 2.614302 82.725550 33.000678 -9.496391 -3.394027 0.561891 2.045229 -6.716087 -20.470825 27.439964 -21.464459 -37.481227 20.867774 -76.986502 -40.436135 -21.416143 3.554360 2.646014 7.272296 11.474156 -4.517785 9.789263 -5.739191 4.965887 1.346073 2.061435 0.623364 -4.495919 2.503294 -0.562125 0.221014 -0.205005 -10.161180 16.345176 2.262768 19.874934 4.146249 -6.548107 1.139518 -10.652531 0.170335 1.325597 0.092976 0.570783
2.085990 90.142725 25.963144 -38.771034 -6.418947 -0.453955 2.679981 -3.750893 0.516734 1.413710 -1.534933 0.112275 1.413710 -1.534933 0.112275 1.060501 -1.150947 0.087753 0.244818 27.288058 0.797798 0.266435 14.492510 1.368247 2.077426 20.345536 14.008256 30.884130 2.811131 82.734892 33.265803 -8.954064 -3.492117 0.619204 2.192803 -6.709487 -20.506905 27.454677 -21.460259 -37.419351 20.849353 -76.685500 -41.395031 -21.456886 4.060228 2.815698 7.386793 11.550226 -4.081006 9.802218 -5.642645 5.141788 1.450588 2.061668 0.454947 -4.609773 2.573019 -0.575116 0.177652 -0.251449 -9.693436 16.421543 2.469385 19.887487 4.096092 -6.551169 0.701823 -10.658733 0.141726 1.429643 0.096138 0.596364
2.041319 90.131065 26.010366 -38.560649 -6.268226 -0.480012 2.590651 -3.933192 0.522502 1.425772 -1.547257 0.107432 1.425772 -1.547257 0.107432 1.069536 -1.160199 0.084180 0.239979 27.284613 0.782071 0.261130 14.486089 1.341277 2.118604 20.455009 14.042061 31.676543 3.247055 82.885757 34.168051 -8.473091 -3.989279 0.615738 2.398246 -6.799556 -20.585740 27.602752 -21.476802 -37.717625 20.927592 -76.352113 -42.761808 -21.673011 5.007399 3.079421 7.538452 11.638626 -3.668753 9.702660 -5.563325 5.050176 1.557785 2.071844 0.454973 -4.732172 2.624042 -0.593283 0.159375 -0.296362 -9.473401 16.313493 2.668177 19.919590 4.113609 -6.618782 0.338580 -10.660508 0.119948 1.587620 0.109498 0.646404
2.025730 90.122578 26.030571 -38.379066 -6.110366 -0.461281 2.476537 -4.123384 0.488963 1.437422 -1.554742 0.106259 1.437422 -1.554742 0.106259 1.078270 -1.165815 0.083348 0.241959 27.283170 0.749126 0.271636 14.483258 1.282206 2.152992 20.441145 14.108615 32.438647 4.066194 83.215690 35.748302 -7.886170 -4.759130 0.566048 2.678137 -6.994371 -20.691973 27.765718 -21.509172 -37.774851 20.921622 -76.005263 -44.166666 -21.535558 6.022626 3.403423 7.642319 11.748367 -3.256110 9.577131 -5.529006 4.719217 1.648611 2.100825 0.553209 -4.838292 2.640753 -0.611506 0.172684 -0.316747 -9.608092 16.127168 2.692610 20.106834 4.196639 -6.630006 0.207982 -10.675355 0.115269 1.655677 0.117577 0.661672
2.027716 90.117627 26.048855 -38.303312 -6.096226 -0.428898 2.470342 -4.147616 0.456692 1.428618 -1.549041 0.101786 1.428618 -1.549041 0.101786 1.071656 -1.161550 0.079957 0.257337 27.265599 0.710797 0.307009 14.450370 1.210695 2.180988 20.318727 14.220322 32.496918 5.071146 83.446686 38.058134 -6.742000 -5.251531 0.443766 2.971101 -7.468620 -20.745331 27.858469 -21.456855 -37.455179 20.715055 -75.690084 -45.710318 -21.168655 7.080995 3.944523 7.926527 11.903057 -2.768688 9.554248 -5.515508 4.262212 1.790348 2.139276 0.676764 -4.946121 2.625523 -0.615062 0.183583 -0.304391 -9.802873 16.061553 2.594853 20.278116 4.277069 -6.581872 0.273675 -10.689739 0.140498 1.604967 0.116405 0.631485
2.052954 90.119074 26.086401 -38.305522 -6.264775 -0.377911 2.548001 -4.017820 0.427287 1.392942 -1.530854 0.091094 1.392942 -1.530854 0.091094 1.044872 -1.147940 0.071807 0.290467 27.250502 0.673247 0.373859 14.421987 1.136784 2.203273 20.159962 14.328736 31.419374 6.047233 83.435596 40.973297 -4.989755 -5.078090 0.298405 3.284802 -8.311314 -20.743622 28.023345 -21.350689 -37.342106 20.479125 -75.424704 -47.568746 -20.848782 8.483310 4.703070 8.330827 12.118638 -2.232480 9.688684 -5.532559 3.826484 1.961613 2.174037 0.718301 -5.042705 2.598499 -0.610230 0.176090 -0.268255 -10.000955 16.180914 2.406122 20.258170 4.317367 -6.568524 0.642381 -10.679279 0.225164 1.452445 0.082015 0.571378
2.107213 90.128552 26.126663 -38.218722 -6.440461 -0.289582 2.534535 -3.895656 0.381059 1.337041 -1.511595 0.075026 1.337041 -1.511595 0.075026 1.002908 -1.133538 0.059574 0.327463 27.245315 0.634846 0.447858 14.412044 1.060535 2.152241 19.937579 14.335820 29.850047 7.072977 83.489889 44.649651 -3.227955 -4.942804 0.093996 3.534139 -9.154078 -20.698641 28.187787 -21.265444 -36.704423 20.037736 -75.039499 -49.256220 -19.771088 9.589851 5.471885 8.571835 12.379516 -1.840986 9.834003 -5.604758 3.579152 2.104611 2.179695 0.648632 -5.122315 2.560685 -0.575625 0.159207 -0.202277 -10.644543 16.253313 2.060581 20.444622 4.407581 -6.521017 1.013580 -10.666827 0.302683 1.283677 0.025597 0.521269
2.201871 90.144002 26.147608 -37.897697 -6.455229 -0.156461 2.323972 -3.926061 0.281452 1.264160 -1.513034 0.053584 1.264160 -1.513034 0.053584 0.948197 -1.134670 0.043316 0.356905 27.272480 0.599145 0.508042 14.462292 0.990769 2.037429 19.731906 14.297093 27.853395 8.280643 83.533284 49.274226 -1.946945 -4.721985 -0.213911 3.754933 -9.803577 -20.658924 28.376841 -21.201559 -35.945512 19.659619 -74.730485 -51.042827 -18.303557 10.685235 6.008424 8.570084 12.658005 -1.786633 9.855824 -5.729492 3.514193 2.151834 2.119726 0.489975 -5.176297 2.529662 -0.515871 0.157168 -0.120348 -11.574613 16.078835 1.654480 20.629543 4.529592 -6.473809 1.435444 -10.641534 0.368633 1.125332 -0.025859 0.498099
2.279524 90.161530 26.170643 -37.421541 -6.503947 -0.020849 2.028194 -3.952798 0.196592 1.166849 -1.521428 0.028816 1.166849 -1.521428 0.028816 0.875157 -1.141021 0.024516 0.378952 27.336288 0.540448 0.560110 14.580673 0.881766 1.885885 19.585947 14.239817 25.389308 9.523650 83.586920 54.496188 -0.828148 -4.126692 -0.574518 3.803516 -10.461139 -20.672767 28.798113 -21.173866 -35.526945 19.320640 -74.468722 -53.511429 -17.134337 12.134127 6.424673 8.515381 12.952871 -2.019081 9.955935 -5.883017 3.542655 2.134425 2.034944 0.408709 -5.227125 2.482342 -0.447185 0.151056 -0.035008 -12.433728 15.875458 1.302001 20.967951 4.772283 -6.348170 1.471742 -10.637495 0.345171 1.003545 -0.096943 0.503245
2.331794 90.171214 26.230918 -36.987593 -6.565070 0.032816 1.801173 -3.997318 0.248923 1.043828 -1.517514 0.011905 1.043828 -1.517514 0.011905 0.782855 -1.138119 0.011521 0.403266 27.414412 0.436795 0.625650 14.725769 0.692388 1.811936 19.770262 14.133999 22.353540 10.430781 83.351086 59.974151 0.522599 -3.005912 -0.907280 3.666275 -11.022131 -20.505223 29.115658 -21.053042 -35.877425 19.304280 -74.457220 -56.897086 -16.744099 14.141367 6.749138 8.595351 13.166910 -2.473088 10.100039 -5.952522 3.637018 2.062781 1.971021 0.209760 -5.246137 2.284539 -0.167125 0.124493 0.140692 -12.926108 15.743389 1.041080 21.141207 4.968717 -6.147998 1.534339 -10.705210 0.313193 0.787896 -0.123600 0.464888
2.397619 90.161843 26.410544 -36.362600 -6.620016 0.229210 1.481095 -3.964549 0.171361 0.887990 -1.541264 0.001255 0.887990 -1.541264 0.001255 0.665955 -1.155949 0.003181 0.423378 27.501704 0.313322 0.687678 14.888132 0.468771 1.620839 19.959357 13.901277 19.428635 11.408516 83.095643 65.711270 1.790236 -1.645565 -1.031281 3.432202 -11.419587 -20.214560 29.147859 -20.870880 -36.829599 19.674043 -74.788741 -60.831845 -16.561890 16.482365 6.864501 8.512081 13.219311 -3.564342 10.282378 -6.420845 4.080050 1.967728 1.963814 0.282183 -5.438633 2.284539 -0.174423 0.164492 0.178928 -13.381460 15.584821 0.591891 20.546619 5.086256 -5.875992 1.985321 -10.782607 0.245520 0.606795 -0.182268 0.437715
2.514725 90.127222 26.594081 -35.271402 -6.324975 0.403471 0.834974 -4.211858 0.070986 0.684803 -1.578622 -0.013729 0.684803 -1.578622 -0.013729 0.513534 -1.183984 -0.008527 0.452245 27.585812 0.183806 0.766261 15.044849 0.232683 1.268253 19.917131 13.553343 16.999536 12.845173 82.812892 71.731086 2.944903 -0.112861 -0.775441 3.397643 -11.914789 -19.971895 29.038286 -20.723481 -37.765796 20.141178 -75.188781 -65.062184 -16.318589 18.693977 6.796971 8.376465 13.121696 -5.570588 10.134582 -6.997395 5.033961 1.754987 1.938226 0.267629 -5.665276 2.325323 -0.184955 0.249043 0.206168 -13.880441 15.052240 0.288433 19.930777 5.162944 -5.561420 1.953435 -10.880308 0.124552 0.608506 -0.141432 0.488962
